<svg id="Capa_1" enable-background="new 0 0 512 512" height="512" viewBox="0 0 512 512" width="512" xmlns="http://www.w3.org/2000/svg"><g><path d="m400.331 491.396v-426.233c0-11.379-9.225-20.604-20.604-20.604h-332.082c-11.379 0-20.604 9.225-20.604 20.604v426.233c0 11.379 9.225 20.604 20.604 20.604h332.082c11.38 0 20.604-9.225 20.604-20.604z" fill="#407093"/><path d="m369.426 475.944v-395.328c0-2.845-2.306-5.151-5.151-5.151h-301.177c-2.845 0-5.151 2.306-5.151 5.151v395.328c0 2.845 2.306 5.151 5.151 5.151h301.176c2.846 0 5.152-2.307 5.152-5.151z" fill="#e7ecf6"/><path d="m382.648 44.559h-30.906c11.379 0 20.604 9.225 20.604 20.604v426.233c0 11.379-9.225 20.604-20.604 20.604h30.906c11.379 0 20.604-9.225 20.604-20.604v-426.233c-.001-11.379-9.225-20.604-20.604-20.604z" fill="#365e7d"/><path d="m367.195 75.465h-30.906c2.845 0 5.151 2.306 5.151 5.151v395.328c0 2.845-2.306 5.151-5.151 5.151h30.906c2.845 0 5.151-2.306 5.151-5.151v-395.328c0-2.845-2.306-5.151-5.151-5.151z" fill="#d8e2f1"/><path d="m168.788 62.841v-40.85c0-12.145 9.846-21.991 21.992-21.991h48.734c12.145 0 21.991 9.846 21.991 21.991v40.85z" fill="#eab14d"/><path d="m239.513 0h-26.282c12.145 0 21.991 9.846 21.991 21.991v40.85h26.282v-40.85c.001-12.145-9.845-21.991-21.991-21.991z" fill="#e7a52e"/><path d="m306.943 111.264h-183.593c-5.121 0-9.272-4.151-9.272-9.272v-61.3c0-5.121 4.151-9.272 9.272-9.272h183.593c5.121 0 9.272 4.151 9.272 9.272v61.301c0 5.12-4.151 9.271-9.272 9.271z" fill="#ecbe6b"/><path d="m306.943 31.421h-26.282c5.121 0 9.272 4.151 9.272 9.272v61.301c0 5.121-4.151 9.272-9.272 9.272h26.282c5.121 0 9.272-4.151 9.272-9.272v-61.302c0-5.121-4.151-9.271-9.272-9.271z" fill="#eab14d"/><path d="m478.395 438.568c-8.752 8.752-22.941 8.752-31.692 0l-121.724-121.723 31.693-31.693 121.723 121.723c8.751 8.752 8.751 22.941 0 31.693z" fill="#9dc6fb"/><path d="m478.395 406.875-121.723-121.723-10.221 10.221 111.502 111.502c8.752 8.752 8.752 22.941 0 31.692-1.696 1.696-3.6 3.054-5.626 4.093 8.425 4.32 19.011 2.963 26.067-4.093 8.752-8.751 8.752-22.94.001-31.692z" fill="#80b4fb"/><circle cx="329.367" cy="289.541" fill="#e28086" r="99.41"/><path d="m378.393 338.566c-27.033 27.033-71.018 27.032-98.051-.001s-27.033-71.018 0-98.05 71.017-27.033 98.05 0 27.034 71.019.001 98.051z" fill="#dff6fd"/><path d="m399.661 219.247c-22.015-22.014-51.784-31.531-80.514-28.579 21.935 2.254 43.265 11.771 60.073 28.579 38.822 38.822 38.822 101.765 0 140.587-16.808 16.808-38.138 26.324-60.073 28.579 28.73 2.953 58.5-6.564 80.514-28.579 38.822-38.822 38.822-101.765 0-140.587z" fill="#dd636e"/><path d="m378.392 240.515c-16.118-16.118-38.262-22.62-59.246-19.518 14.21 2.101 27.89 8.603 38.805 19.518 27.033 27.033 27.034 71.019.001 98.051-10.915 10.915-24.594 17.417-38.804 19.517 20.985 3.102 43.128-3.4 59.246-19.517 27.032-27.032 27.031-71.018-.002-98.051z" fill="#c8effe"/><g><g><g><g><path d="m192.518 227.969h-87.086c-4.267 0-7.726-3.459-7.726-7.726 0-4.268 3.459-7.726 7.726-7.726h87.086c4.267 0 7.726 3.459 7.726 7.726s-3.459 7.726-7.726 7.726z" fill="#78c2a4"/></g></g><g><g><path d="m192.518 293.643h-87.086c-4.267 0-7.726-3.459-7.726-7.726s3.459-7.726 7.726-7.726h87.086c4.267 0 7.726 3.459 7.726 7.726s-3.459 7.726-7.726 7.726z" fill="#78c2a4"/></g></g><g><g><path d="m192.518 359.317h-87.086c-4.267 0-7.726-3.459-7.726-7.726s3.459-7.726 7.726-7.726h87.086c4.267 0 7.726 3.459 7.726 7.726s-3.459 7.726-7.726 7.726z" fill="#78c2a4"/></g></g></g><g><g><g><path d="m324.861 162.295h-219.429c-4.267 0-7.726-3.459-7.726-7.726 0-4.268 3.459-7.726 7.726-7.726h219.429c4.267 0 7.726 3.459 7.726 7.726s-3.459 7.726-7.726 7.726z" fill="#78c2a4"/></g></g></g><g><g><path d="m261.505 424.971h-156.073c-4.267 0-7.726-3.459-7.726-7.726s3.459-7.726 7.726-7.726h156.072c4.267 0 7.726 3.459 7.726 7.726s-3.458 7.726-7.725 7.726z" fill="#78c2a4"/></g></g></g></g></svg>